<svg xmlns="http://www.w3.org/2000/svg" version="1.1" xmlns:xlink="http://www.w3.org/1999/xlink" xmlns:svgjs="http://svgjs.com/svgjs" width="720" height="560" preserveAspectRatio="none" viewBox="0 0 720 560"><g mask="url(&quot;#SvgjsMask1030&quot;)" fill="none"><path d="M-35.78 385.32L-35.78 385.32" stroke="rgba(234, 96, 35, 1)" stroke-width="1.5"></path><path d="M-35.78 385.32L43.93 385.19" stroke="rgba(234, 96, 35, 1)" stroke-width="1.5"></path><path d="M-35.78 385.32L-49.72 499.09" stroke="rgba(234, 96, 35, 1)" stroke-width="1.5"></path><path d="M-35.78 385.32L30.65 494.94" stroke="rgba(234, 96, 35, 1)" stroke-width="1.5"></path><path d="M-35.78 385.32L132.82 388.86" stroke="rgba(234, 96, 35, 1)" stroke-width="1.5"></path><path d="M-49.72 499.09L-49.72 499.09" stroke="rgba(234, 96, 35, 1)" stroke-width="1.5"></path><path d="M-49.72 499.09L-62.95 575.16" stroke="rgba(234, 96, 35, 1)" stroke-width="1.5"></path><path d="M-49.72 499.09L30.65 494.94" stroke="rgba(234, 96, 35, 1)" stroke-width="1.5"></path><path d="M-62.95 575.16L-62.95 575.16" stroke="rgba(234, 96, 35, 1)" stroke-width="1.5"></path><path d="M-62.95 575.16L-43.49 692.4" stroke="rgba(234, 96, 35, 1)" stroke-width="1.5"></path><path d="M-43.49 692.4L-43.49 692.4" stroke="rgba(234, 96, 35, 1)" stroke-width="1.5"></path><path d="M-43.49 692.4L62.47 671.78" stroke="rgba(234, 96, 35, 1)" stroke-width="1.5"></path><path d="M-43.49 692.4L63.89 578.12" stroke="rgba(234, 96, 35, 1)" stroke-width="1.5"></path><path d="M-43.49 692.4L115.19 596.32" stroke="rgba(234, 96, 35, 1)" stroke-width="1.5"></path><path d="M43.93 385.19L43.93 385.19" stroke="rgba(234, 96, 35, 1)" stroke-width="1.5"></path><path d="M43.93 385.19L132.82 388.86" stroke="rgba(234, 96, 35, 1)" stroke-width="1.5"></path><path d="M43.93 385.19L30.65 494.94" stroke="rgba(234, 96, 35, 1)" stroke-width="1.5"></path><path d="M43.93 385.19L-49.72 499.09" stroke="rgba(234, 96, 35, 1)" stroke-width="1.5"></path><path d="M30.65 494.94L30.65 494.94" stroke="rgba(234, 96, 35, 1)" stroke-width="1.5"></path><path d="M30.65 494.94L63.89 578.12" stroke="rgba(234, 96, 35, 1)" stroke-width="1.5"></path><path d="M30.65 494.94L-62.95 575.16" stroke="rgba(234, 96, 35, 1)" stroke-width="1.5"></path><path d="M30.65 494.94L154.8 487.4" stroke="rgba(234, 96, 35, 1)" stroke-width="1.5"></path><path d="M63.89 578.12L63.89 578.12" stroke="rgba(234, 96, 35, 1)" stroke-width="1.5"></path><path d="M63.89 578.12L115.19 596.32" stroke="rgba(234, 96, 35, 1)" stroke-width="1.5"></path><path d="M63.89 578.12L62.47 671.78" stroke="rgba(234, 96, 35, 1)" stroke-width="1.5"></path><path d="M63.89 578.12L144.19 669.08" stroke="rgba(234, 96, 35, 1)" stroke-width="1.5"></path><path d="M63.89 578.12L-62.95 575.16" stroke="rgba(234, 96, 35, 1)" stroke-width="1.5"></path><path d="M63.89 578.12L154.8 487.4" stroke="rgba(234, 96, 35, 1)" stroke-width="1.5"></path><path d="M62.47 671.78L62.47 671.78" stroke="rgba(234, 96, 35, 1)" stroke-width="1.5"></path><path d="M62.47 671.78L144.19 669.08" stroke="rgba(234, 96, 35, 1)" stroke-width="1.5"></path><path d="M62.47 671.78L115.19 596.32" stroke="rgba(234, 96, 35, 1)" stroke-width="1.5"></path><path d="M62.47 671.78L-62.95 575.16" stroke="rgba(234, 96, 35, 1)" stroke-width="1.5"></path><path d="M132.82 388.86L132.82 388.86" stroke="rgba(234, 96, 35, 1)" stroke-width="1.5"></path><path d="M132.82 388.86L154.8 487.4" stroke="rgba(234, 96, 35, 1)" stroke-width="1.5"></path><path d="M132.82 388.86L210.31 311.55" stroke="rgba(234, 96, 35, 1)" stroke-width="1.5"></path><path d="M132.82 388.86L30.65 494.94" stroke="rgba(234, 96, 35, 1)" stroke-width="1.5"></path><path d="M132.82 388.86L239.76 491.91" stroke="rgba(234, 96, 35, 1)" stroke-width="1.5"></path><path d="M154.8 487.4L154.8 487.4" stroke="rgba(234, 96, 35, 1)" stroke-width="1.5"></path><path d="M154.8 487.4L239.76 491.91" stroke="rgba(234, 96, 35, 1)" stroke-width="1.5"></path><path d="M154.8 487.4L202.62 581.19" stroke="rgba(234, 96, 35, 1)" stroke-width="1.5"></path><path d="M154.8 487.4L115.19 596.32" stroke="rgba(234, 96, 35, 1)" stroke-width="1.5"></path><path d="M115.19 596.32L115.19 596.32" stroke="rgba(234, 96, 35, 1)" stroke-width="1.5"></path><path d="M115.19 596.32L144.19 669.08" stroke="rgba(234, 96, 35, 1)" stroke-width="1.5"></path><path d="M144.19 669.08L144.19 669.08" stroke="rgba(234, 96, 35, 1)" stroke-width="1.5"></path><path d="M144.19 669.08L228.55 692.65" stroke="rgba(234, 96, 35, 1)" stroke-width="1.5"></path><path d="M144.19 669.08L202.62 581.19" stroke="rgba(234, 96, 35, 1)" stroke-width="1.5"></path><path d="M144.19 669.08L307.27 657.71" stroke="rgba(234, 96, 35, 1)" stroke-width="1.5"></path><path d="M210.31 311.55L210.31 311.55" stroke="rgba(234, 96, 35, 1)" stroke-width="1.5"></path><path d="M210.31 311.55L334.23 320.99" stroke="rgba(234, 96, 35, 1)" stroke-width="1.5"></path><path d="M210.31 311.55L43.93 385.19" stroke="rgba(234, 96, 35, 1)" stroke-width="1.5"></path><path d="M239.76 491.91L239.76 491.91" stroke="rgba(234, 96, 35, 1)" stroke-width="1.5"></path><path d="M239.76 491.91L296.41 507.21" stroke="rgba(234, 96, 35, 1)" stroke-width="1.5"></path><path d="M239.76 491.91L202.62 581.19" stroke="rgba(234, 96, 35, 1)" stroke-width="1.5"></path><path d="M239.76 491.91L323.74 593.39" stroke="rgba(234, 96, 35, 1)" stroke-width="1.5"></path><path d="M202.62 581.19L202.62 581.19" stroke="rgba(234, 96, 35, 1)" stroke-width="1.5"></path><path d="M202.62 581.19L115.19 596.32" stroke="rgba(234, 96, 35, 1)" stroke-width="1.5"></path><path d="M228.55 692.65L228.55 692.65" stroke="rgba(234, 96, 35, 1)" stroke-width="1.5"></path><path d="M228.55 692.65L307.27 657.71" stroke="rgba(234, 96, 35, 1)" stroke-width="1.5"></path><path d="M228.55 692.65L202.62 581.19" stroke="rgba(234, 96, 35, 1)" stroke-width="1.5"></path><path d="M334.23 320.99L334.23 320.99" stroke="rgba(234, 96, 35, 1)" stroke-width="1.5"></path><path d="M334.23 320.99L417.14 321.73" stroke="rgba(234, 96, 35, 1)" stroke-width="1.5"></path><path d="M334.23 320.99L407.6 397.62" stroke="rgba(234, 96, 35, 1)" stroke-width="1.5"></path><path d="M334.23 320.99L421.11 220.65" stroke="rgba(234, 96, 35, 1)" stroke-width="1.5"></path><path d="M334.23 320.99L501.08 303.18" stroke="rgba(234, 96, 35, 1)" stroke-width="1.5"></path><path d="M296.41 507.21L296.41 507.21" stroke="rgba(234, 96, 35, 1)" stroke-width="1.5"></path><path d="M296.41 507.21L323.74 593.39" stroke="rgba(234, 96, 35, 1)" stroke-width="1.5"></path><path d="M296.41 507.21L413.91 510.41" stroke="rgba(234, 96, 35, 1)" stroke-width="1.5"></path><path d="M296.41 507.21L386.61 583.37" stroke="rgba(234, 96, 35, 1)" stroke-width="1.5"></path><path d="M296.41 507.21L202.62 581.19" stroke="rgba(234, 96, 35, 1)" stroke-width="1.5"></path><path d="M323.74 593.39L323.74 593.39" stroke="rgba(234, 96, 35, 1)" stroke-width="1.5"></path><path d="M323.74 593.39L386.61 583.37" stroke="rgba(234, 96, 35, 1)" stroke-width="1.5"></path><path d="M323.74 593.39L307.27 657.71" stroke="rgba(234, 96, 35, 1)" stroke-width="1.5"></path><path d="M307.27 657.71L307.27 657.71" stroke="rgba(234, 96, 35, 1)" stroke-width="1.5"></path><path d="M421.11 220.65L421.11 220.65" stroke="rgba(234, 96, 35, 1)" stroke-width="1.5"></path><path d="M421.11 220.65L514.27 233.8" stroke="rgba(234, 96, 35, 1)" stroke-width="1.5"></path><path d="M421.11 220.65L417.14 321.73" stroke="rgba(234, 96, 35, 1)" stroke-width="1.5"></path><path d="M421.11 220.65L500.22 143.18" stroke="rgba(234, 96, 35, 1)" stroke-width="1.5"></path><path d="M421.11 220.65L501.08 303.18" stroke="rgba(234, 96, 35, 1)" stroke-width="1.5"></path><path d="M421.11 220.65L579.01 221.79" stroke="rgba(234, 96, 35, 1)" stroke-width="1.5"></path><path d="M417.14 321.73L417.14 321.73" stroke="rgba(234, 96, 35, 1)" stroke-width="1.5"></path><path d="M417.14 321.73L407.6 397.62" stroke="rgba(234, 96, 35, 1)" stroke-width="1.5"></path><path d="M407.6 397.62L407.6 397.62" stroke="rgba(234, 96, 35, 1)" stroke-width="1.5"></path><path d="M407.6 397.62L413.91 510.41" stroke="rgba(234, 96, 35, 1)" stroke-width="1.5"></path><path d="M407.6 397.62L501.08 303.18" stroke="rgba(234, 96, 35, 1)" stroke-width="1.5"></path><path d="M407.6 397.62L476.99 514.36" stroke="rgba(234, 96, 35, 1)" stroke-width="1.5"></path><path d="M407.6 397.62L296.41 507.21" stroke="rgba(234, 96, 35, 1)" stroke-width="1.5"></path><path d="M413.91 510.41L413.91 510.41" stroke="rgba(234, 96, 35, 1)" stroke-width="1.5"></path><path d="M413.91 510.41L476.99 514.36" stroke="rgba(234, 96, 35, 1)" stroke-width="1.5"></path><path d="M413.91 510.41L386.61 583.37" stroke="rgba(234, 96, 35, 1)" stroke-width="1.5"></path><path d="M386.61 583.37L386.61 583.37" stroke="rgba(234, 96, 35, 1)" stroke-width="1.5"></path><path d="M426.31 660.24L426.31 660.24" stroke="rgba(234, 96, 35, 1)" stroke-width="1.5"></path><path d="M426.31 660.24L386.61 583.37" stroke="rgba(234, 96, 35, 1)" stroke-width="1.5"></path><path d="M426.31 660.24L516.65 665.61" stroke="rgba(234, 96, 35, 1)" stroke-width="1.5"></path><path d="M426.31 660.24L495.12 571.47" stroke="rgba(234, 96, 35, 1)" stroke-width="1.5"></path><path d="M426.31 660.24L307.27 657.71" stroke="rgba(234, 96, 35, 1)" stroke-width="1.5"></path><path d="M426.31 660.24L323.74 593.39" stroke="rgba(234, 96, 35, 1)" stroke-width="1.5"></path><path d="M426.31 660.24L565.43 684.71" stroke="rgba(234, 96, 35, 1)" stroke-width="1.5"></path><path d="M477.21 -35.7L477.21 -35.7" stroke="rgba(234, 96, 35, 1)" stroke-width="1.5"></path><path d="M477.21 -35.7L474.27 24.53" stroke="rgba(234, 96, 35, 1)" stroke-width="1.5"></path><path d="M477.21 -35.7L575.31 -31.37" stroke="rgba(234, 96, 35, 1)" stroke-width="1.5"></path><path d="M474.27 24.53L474.27 24.53" stroke="rgba(234, 96, 35, 1)" stroke-width="1.5"></path><path d="M474.27 24.53L575.31 -31.37" stroke="rgba(234, 96, 35, 1)" stroke-width="1.5"></path><path d="M474.27 24.53L591.55 37.5" stroke="rgba(234, 96, 35, 1)" stroke-width="1.5"></path><path d="M500.22 143.18L500.22 143.18" stroke="rgba(234, 96, 35, 1)" stroke-width="1.5"></path><path d="M500.22 143.18L514.27 233.8" stroke="rgba(234, 96, 35, 1)" stroke-width="1.5"></path><path d="M514.27 233.8L514.27 233.8" stroke="rgba(234, 96, 35, 1)" stroke-width="1.5"></path><path d="M514.27 233.8L579.01 221.79" stroke="rgba(234, 96, 35, 1)" stroke-width="1.5"></path><path d="M514.27 233.8L501.08 303.18" stroke="rgba(234, 96, 35, 1)" stroke-width="1.5"></path><path d="M501.08 303.18L501.08 303.18" stroke="rgba(234, 96, 35, 1)" stroke-width="1.5"></path><path d="M501.08 303.18L417.14 321.73" stroke="rgba(234, 96, 35, 1)" stroke-width="1.5"></path><path d="M501.08 303.18L594.44 309.14" stroke="rgba(234, 96, 35, 1)" stroke-width="1.5"></path><path d="M501.08 303.18L579.01 221.79" stroke="rgba(234, 96, 35, 1)" stroke-width="1.5"></path><path d="M476.99 514.36L476.99 514.36" stroke="rgba(234, 96, 35, 1)" stroke-width="1.5"></path><path d="M476.99 514.36L495.12 571.47" stroke="rgba(234, 96, 35, 1)" stroke-width="1.5"></path><path d="M476.99 514.36L566.13 577.56" stroke="rgba(234, 96, 35, 1)" stroke-width="1.5"></path><path d="M476.99 514.36L586.44 495.55" stroke="rgba(234, 96, 35, 1)" stroke-width="1.5"></path><path d="M495.12 571.47L495.12 571.47" stroke="rgba(234, 96, 35, 1)" stroke-width="1.5"></path><path d="M495.12 571.47L566.13 577.56" stroke="rgba(234, 96, 35, 1)" stroke-width="1.5"></path><path d="M516.65 665.61L516.65 665.61" stroke="rgba(234, 96, 35, 1)" stroke-width="1.5"></path><path d="M516.65 665.61L565.43 684.71" stroke="rgba(234, 96, 35, 1)" stroke-width="1.5"></path><path d="M516.65 665.61L495.12 571.47" stroke="rgba(234, 96, 35, 1)" stroke-width="1.5"></path><path d="M575.31 -31.37L575.31 -31.37" stroke="rgba(234, 96, 35, 1)" stroke-width="1.5"></path><path d="M575.31 -31.37L591.55 37.5" stroke="rgba(234, 96, 35, 1)" stroke-width="1.5"></path><path d="M575.31 -31.37L668.48 -58.35" stroke="rgba(234, 96, 35, 1)" stroke-width="1.5"></path><path d="M591.55 37.5L591.55 37.5" stroke="rgba(234, 96, 35, 1)" stroke-width="1.5"></path><path d="M591.55 37.5L598.51 116.27" stroke="rgba(234, 96, 35, 1)" stroke-width="1.5"></path><path d="M591.55 37.5L683.57 38.74" stroke="rgba(234, 96, 35, 1)" stroke-width="1.5"></path><path d="M598.51 116.27L598.51 116.27" stroke="rgba(234, 96, 35, 1)" stroke-width="1.5"></path><path d="M598.51 116.27L689.05 147.03" stroke="rgba(234, 96, 35, 1)" stroke-width="1.5"></path><path d="M579.01 221.79L579.01 221.79" stroke="rgba(234, 96, 35, 1)" stroke-width="1.5"></path><path d="M579.01 221.79L660.36 220.48" stroke="rgba(234, 96, 35, 1)" stroke-width="1.5"></path><path d="M579.01 221.79L594.44 309.14" stroke="rgba(234, 96, 35, 1)" stroke-width="1.5"></path><path d="M579.01 221.79L598.51 116.27" stroke="rgba(234, 96, 35, 1)" stroke-width="1.5"></path><path d="M579.01 221.79L500.22 143.18" stroke="rgba(234, 96, 35, 1)" stroke-width="1.5"></path><path d="M594.44 309.14L594.44 309.14" stroke="rgba(234, 96, 35, 1)" stroke-width="1.5"></path><path d="M590.96 422.75L590.96 422.75" stroke="rgba(234, 96, 35, 1)" stroke-width="1.5"></path><path d="M590.96 422.75L586.44 495.55" stroke="rgba(234, 96, 35, 1)" stroke-width="1.5"></path><path d="M590.96 422.75L673.34 411.45" stroke="rgba(234, 96, 35, 1)" stroke-width="1.5"></path><path d="M590.96 422.75L594.44 309.14" stroke="rgba(234, 96, 35, 1)" stroke-width="1.5"></path><path d="M590.96 422.75L689.28 506.83" stroke="rgba(234, 96, 35, 1)" stroke-width="1.5"></path><path d="M590.96 422.75L697.34 323.64" stroke="rgba(234, 96, 35, 1)" stroke-width="1.5"></path><path d="M586.44 495.55L586.44 495.55" stroke="rgba(234, 96, 35, 1)" stroke-width="1.5"></path><path d="M586.44 495.55L566.13 577.56" stroke="rgba(234, 96, 35, 1)" stroke-width="1.5"></path><path d="M586.44 495.55L689.28 506.83" stroke="rgba(234, 96, 35, 1)" stroke-width="1.5"></path><path d="M566.13 577.56L566.13 577.56" stroke="rgba(234, 96, 35, 1)" stroke-width="1.5"></path><path d="M566.13 577.56L659.53 570.23" stroke="rgba(234, 96, 35, 1)" stroke-width="1.5"></path><path d="M566.13 577.56L516.65 665.61" stroke="rgba(234, 96, 35, 1)" stroke-width="1.5"></path><path d="M566.13 577.56L565.43 684.71" stroke="rgba(234, 96, 35, 1)" stroke-width="1.5"></path><path d="M565.43 684.71L565.43 684.71" stroke="rgba(234, 96, 35, 1)" stroke-width="1.5"></path><path d="M565.43 684.71L495.12 571.47" stroke="rgba(234, 96, 35, 1)" stroke-width="1.5"></path><path d="M565.43 684.71L659.53 570.23" stroke="rgba(234, 96, 35, 1)" stroke-width="1.5"></path><path d="M565.43 684.71L749.63 688.39" stroke="rgba(234, 96, 35, 1)" stroke-width="1.5"></path><path d="M668.48 -58.35L668.48 -58.35" stroke="rgba(234, 96, 35, 1)" stroke-width="1.5"></path><path d="M668.48 -58.35L683.57 38.74" stroke="rgba(234, 96, 35, 1)" stroke-width="1.5"></path><path d="M668.48 -58.35L762.63 -30.01" stroke="rgba(234, 96, 35, 1)" stroke-width="1.5"></path><path d="M683.57 38.74L683.57 38.74" stroke="rgba(234, 96, 35, 1)" stroke-width="1.5"></path><path d="M683.57 38.74L750.14 49.22" stroke="rgba(234, 96, 35, 1)" stroke-width="1.5"></path><path d="M683.57 38.74L762.63 -30.01" stroke="rgba(234, 96, 35, 1)" stroke-width="1.5"></path><path d="M689.05 147.03L689.05 147.03" stroke="rgba(234, 96, 35, 1)" stroke-width="1.5"></path><path d="M689.05 147.03L660.36 220.48" stroke="rgba(234, 96, 35, 1)" stroke-width="1.5"></path><path d="M689.05 147.03L769.15 142.89" stroke="rgba(234, 96, 35, 1)" stroke-width="1.5"></path><path d="M689.05 147.03L683.57 38.74" stroke="rgba(234, 96, 35, 1)" stroke-width="1.5"></path><path d="M689.05 147.03L750.14 49.22" stroke="rgba(234, 96, 35, 1)" stroke-width="1.5"></path><path d="M689.05 147.03L780.15 222.59" stroke="rgba(234, 96, 35, 1)" stroke-width="1.5"></path><path d="M660.36 220.48L660.36 220.48" stroke="rgba(234, 96, 35, 1)" stroke-width="1.5"></path><path d="M660.36 220.48L697.34 323.64" stroke="rgba(234, 96, 35, 1)" stroke-width="1.5"></path><path d="M660.36 220.48L594.44 309.14" stroke="rgba(234, 96, 35, 1)" stroke-width="1.5"></path><path d="M660.36 220.48L780.15 222.59" stroke="rgba(234, 96, 35, 1)" stroke-width="1.5"></path><path d="M697.34 323.64L697.34 323.64" stroke="rgba(234, 96, 35, 1)" stroke-width="1.5"></path><path d="M697.34 323.64L769.25 300.38" stroke="rgba(234, 96, 35, 1)" stroke-width="1.5"></path><path d="M697.34 323.64L673.34 411.45" stroke="rgba(234, 96, 35, 1)" stroke-width="1.5"></path><path d="M697.34 323.64L780.54 384.56" stroke="rgba(234, 96, 35, 1)" stroke-width="1.5"></path><path d="M697.34 323.64L594.44 309.14" stroke="rgba(234, 96, 35, 1)" stroke-width="1.5"></path><path d="M673.34 411.45L673.34 411.45" stroke="rgba(234, 96, 35, 1)" stroke-width="1.5"></path><path d="M673.34 411.45L689.28 506.83" stroke="rgba(234, 96, 35, 1)" stroke-width="1.5"></path><path d="M673.34 411.45L780.54 384.56" stroke="rgba(234, 96, 35, 1)" stroke-width="1.5"></path><path d="M673.34 411.45L776.03 474.1" stroke="rgba(234, 96, 35, 1)" stroke-width="1.5"></path><path d="M689.28 506.83L689.28 506.83" stroke="rgba(234, 96, 35, 1)" stroke-width="1.5"></path><path d="M689.28 506.83L659.53 570.23" stroke="rgba(234, 96, 35, 1)" stroke-width="1.5"></path><path d="M689.28 506.83L776.03 474.1" stroke="rgba(234, 96, 35, 1)" stroke-width="1.5"></path><path d="M659.53 570.23L659.53 570.23" stroke="rgba(234, 96, 35, 1)" stroke-width="1.5"></path><path d="M762.63 -30.01L762.63 -30.01" stroke="rgba(234, 96, 35, 1)" stroke-width="1.5"></path><path d="M762.63 -30.01L750.14 49.22" stroke="rgba(234, 96, 35, 1)" stroke-width="1.5"></path><path d="M762.63 -30.01L769.15 142.89" stroke="rgba(234, 96, 35, 1)" stroke-width="1.5"></path><path d="M762.63 -30.01L591.55 37.5" stroke="rgba(234, 96, 35, 1)" stroke-width="1.5"></path><path d="M750.14 49.22L750.14 49.22" stroke="rgba(234, 96, 35, 1)" stroke-width="1.5"></path><path d="M750.14 49.22L769.15 142.89" stroke="rgba(234, 96, 35, 1)" stroke-width="1.5"></path><path d="M769.15 142.89L769.15 142.89" stroke="rgba(234, 96, 35, 1)" stroke-width="1.5"></path><path d="M769.15 142.89L780.15 222.59" stroke="rgba(234, 96, 35, 1)" stroke-width="1.5"></path><path d="M769.15 142.89L660.36 220.48" stroke="rgba(234, 96, 35, 1)" stroke-width="1.5"></path><path d="M780.15 222.59L780.15 222.59" stroke="rgba(234, 96, 35, 1)" stroke-width="1.5"></path><path d="M780.15 222.59L769.25 300.38" stroke="rgba(234, 96, 35, 1)" stroke-width="1.5"></path><path d="M769.25 300.38L769.25 300.38" stroke="rgba(234, 96, 35, 1)" stroke-width="1.5"></path><path d="M769.25 300.38L780.54 384.56" stroke="rgba(234, 96, 35, 1)" stroke-width="1.5"></path><path d="M769.25 300.38L660.36 220.48" stroke="rgba(234, 96, 35, 1)" stroke-width="1.5"></path><path d="M780.54 384.56L780.54 384.56" stroke="rgba(234, 96, 35, 1)" stroke-width="1.5"></path><path d="M780.54 384.56L776.03 474.1" stroke="rgba(234, 96, 35, 1)" stroke-width="1.5"></path><path d="M776.03 474.1L776.03 474.1" stroke="rgba(234, 96, 35, 1)" stroke-width="1.5"></path><path d="M776.03 474.1L765.2 578.95" stroke="rgba(234, 96, 35, 1)" stroke-width="1.5"></path><path d="M765.2 578.95L765.2 578.95" stroke="rgba(234, 96, 35, 1)" stroke-width="1.5"></path><path d="M765.2 578.95L689.28 506.83" stroke="rgba(234, 96, 35, 1)" stroke-width="1.5"></path><path d="M765.2 578.95L659.53 570.23" stroke="rgba(234, 96, 35, 1)" stroke-width="1.5"></path><path d="M765.2 578.95L749.63 688.39" stroke="rgba(234, 96, 35, 1)" stroke-width="1.5"></path><path d="M765.2 578.95L673.34 411.45" stroke="rgba(234, 96, 35, 1)" stroke-width="1.5"></path><path d="M749.63 688.39L749.63 688.39" stroke="rgba(234, 96, 35, 1)" stroke-width="1.5"></path><path d="M749.63 688.39L659.53 570.23" stroke="rgba(234, 96, 35, 1)" stroke-width="1.5"></path><path d="M749.63 688.39L689.28 506.83" stroke="rgba(234, 96, 35, 1)" stroke-width="1.5"></path><path d="M749.63 688.39L566.13 577.56" stroke="rgba(234, 96, 35, 1)" stroke-width="1.5"></path><circle r="5" cx="-35.78" cy="385.32" fill="rgba(234, 96, 35, 1)"></circle><circle r="5" cx="-49.72" cy="499.09" fill="rgba(234, 96, 35, 1)"></circle><circle r="5" cx="-62.95" cy="575.16" fill="rgba(234, 96, 35, 1)"></circle><circle r="5" cx="-43.49" cy="692.4" fill="rgba(234, 96, 35, 1)"></circle><circle r="5" cx="43.93" cy="385.19" fill="rgba(234, 96, 35, 1)"></circle><circle r="5" cx="30.65" cy="494.94" fill="rgba(234, 96, 35, 1)"></circle><circle r="5" cx="63.89" cy="578.12" fill="rgba(234, 96, 35, 1)"></circle><circle r="5" cx="62.47" cy="671.78" fill="rgba(234, 96, 35, 1)"></circle><circle r="5" cx="132.82" cy="388.86" fill="rgba(234, 96, 35, 1)"></circle><circle r="5" cx="154.8" cy="487.4" fill="rgba(234, 96, 35, 1)"></circle><circle r="5" cx="115.19" cy="596.32" fill="rgba(234, 96, 35, 1)"></circle><circle r="5" cx="144.19" cy="669.08" fill="rgba(234, 96, 35, 1)"></circle><circle r="5" cx="210.31" cy="311.55" fill="rgba(234, 96, 35, 1)"></circle><circle r="5" cx="239.76" cy="491.91" fill="rgba(234, 96, 35, 1)"></circle><circle r="5" cx="202.62" cy="581.19" fill="rgba(234, 96, 35, 1)"></circle><circle r="5" cx="228.55" cy="692.65" fill="rgba(234, 96, 35, 1)"></circle><circle r="5" cx="334.23" cy="320.99" fill="rgba(234, 96, 35, 1)"></circle><circle r="5" cx="296.41" cy="507.21" fill="rgba(234, 96, 35, 1)"></circle><circle r="5" cx="323.74" cy="593.39" fill="rgba(234, 96, 35, 1)"></circle><circle r="5" cx="307.27" cy="657.71" fill="rgba(234, 96, 35, 1)"></circle><circle r="5" cx="421.11" cy="220.65" fill="rgba(234, 96, 35, 1)"></circle><circle r="5" cx="417.14" cy="321.73" fill="rgba(234, 96, 35, 1)"></circle><circle r="5" cx="407.6" cy="397.62" fill="rgba(234, 96, 35, 1)"></circle><circle r="5" cx="413.91" cy="510.41" fill="rgba(234, 96, 35, 1)"></circle><circle r="5" cx="386.61" cy="583.37" fill="rgba(234, 96, 35, 1)"></circle><circle r="5" cx="426.31" cy="660.24" fill="rgba(234, 96, 35, 1)"></circle><circle r="5" cx="477.21" cy="-35.7" fill="rgba(234, 96, 35, 1)"></circle><circle r="5" cx="474.27" cy="24.53" fill="rgba(234, 96, 35, 1)"></circle><circle r="5" cx="500.22" cy="143.18" fill="rgba(234, 96, 35, 1)"></circle><circle r="5" cx="514.27" cy="233.8" fill="rgba(234, 96, 35, 1)"></circle><circle r="5" cx="501.08" cy="303.18" fill="rgba(234, 96, 35, 1)"></circle><circle r="5" cx="476.99" cy="514.36" fill="rgba(234, 96, 35, 1)"></circle><circle r="5" cx="495.12" cy="571.47" fill="rgba(234, 96, 35, 1)"></circle><circle r="5" cx="516.65" cy="665.61" fill="rgba(234, 96, 35, 1)"></circle><circle r="5" cx="575.31" cy="-31.37" fill="rgba(234, 96, 35, 1)"></circle><circle r="5" cx="591.55" cy="37.5" fill="rgba(234, 96, 35, 1)"></circle><circle r="5" cx="598.51" cy="116.27" fill="rgba(234, 96, 35, 1)"></circle><circle r="5" cx="579.01" cy="221.79" fill="rgba(234, 96, 35, 1)"></circle><circle r="5" cx="594.44" cy="309.14" fill="rgba(234, 96, 35, 1)"></circle><circle r="5" cx="590.96" cy="422.75" fill="rgba(234, 96, 35, 1)"></circle><circle r="5" cx="586.44" cy="495.55" fill="rgba(234, 96, 35, 1)"></circle><circle r="5" cx="566.13" cy="577.56" fill="rgba(234, 96, 35, 1)"></circle><circle r="5" cx="565.43" cy="684.71" fill="rgba(234, 96, 35, 1)"></circle><circle r="5" cx="668.48" cy="-58.35" fill="rgba(234, 96, 35, 1)"></circle><circle r="5" cx="683.57" cy="38.74" fill="rgba(234, 96, 35, 1)"></circle><circle r="5" cx="689.05" cy="147.03" fill="rgba(234, 96, 35, 1)"></circle><circle r="5" cx="660.36" cy="220.48" fill="rgba(234, 96, 35, 1)"></circle><circle r="5" cx="697.34" cy="323.64" fill="rgba(234, 96, 35, 1)"></circle><circle r="5" cx="673.34" cy="411.45" fill="rgba(234, 96, 35, 1)"></circle><circle r="5" cx="689.28" cy="506.83" fill="rgba(234, 96, 35, 1)"></circle><circle r="5" cx="659.53" cy="570.23" fill="rgba(234, 96, 35, 1)"></circle><circle r="5" cx="762.63" cy="-30.01" fill="rgba(234, 96, 35, 1)"></circle><circle r="5" cx="750.14" cy="49.22" fill="rgba(234, 96, 35, 1)"></circle><circle r="5" cx="769.15" cy="142.89" fill="rgba(234, 96, 35, 1)"></circle><circle r="5" cx="780.15" cy="222.59" fill="rgba(234, 96, 35, 1)"></circle><circle r="5" cx="769.25" cy="300.38" fill="rgba(234, 96, 35, 1)"></circle><circle r="5" cx="780.54" cy="384.56" fill="rgba(234, 96, 35, 1)"></circle><circle r="5" cx="776.03" cy="474.1" fill="rgba(234, 96, 35, 1)"></circle><circle r="5" cx="765.2" cy="578.95" fill="rgba(234, 96, 35, 1)"></circle><circle r="5" cx="749.63" cy="688.39" fill="rgba(234, 96, 35, 1)"></circle><path d="M220.04 480.42L220.04 480.42" stroke="hsl(18.399999999999977, 100%, 77.7%)" stroke-width="1.5"></path><path d="M220.04 480.42L307.51 474.42" stroke="hsl(18.399999999999977, 100%, 77.7%)" stroke-width="1.5"></path><path d="M220.04 480.42L131.1 488.52" stroke="hsl(18.399999999999977, 100%, 77.7%)" stroke-width="1.5"></path><path d="M220.04 480.42L227.8 580.99" stroke="hsl(18.399999999999977, 100%, 77.7%)" stroke-width="1.5"></path><path d="M220.04 480.42L142.46 562.75" stroke="hsl(18.399999999999977, 100%, 77.7%)" stroke-width="1.5"></path><path d="M220.04 480.42L303.55 579.08" stroke="hsl(18.399999999999977, 100%, 77.7%)" stroke-width="1.5"></path><path d="M220.04 480.42L336.48 384.33" stroke="hsl(18.399999999999977, 100%, 77.7%)" stroke-width="1.5"></path><path d="M227.8 580.99L227.8 580.99" stroke="hsl(18.399999999999977, 100%, 77.7%)" stroke-width="1.5"></path><path d="M227.8 580.99L303.55 579.08" stroke="hsl(18.399999999999977, 100%, 77.7%)" stroke-width="1.5"></path><path d="M227.8 580.99L142.46 562.75" stroke="hsl(18.399999999999977, 100%, 77.7%)" stroke-width="1.5"></path><path d="M227.8 580.99L296.4 690.13" stroke="hsl(18.399999999999977, 100%, 77.7%)" stroke-width="1.5"></path><path d="M227.8 580.99L307.51 474.42" stroke="hsl(18.399999999999977, 100%, 77.7%)" stroke-width="1.5"></path><path d="M393.29 501.72L393.29 501.72" stroke="hsl(18.399999999999977, 100%, 77.7%)" stroke-width="1.5"></path><path d="M393.29 501.72L424.67 575.62" stroke="hsl(18.399999999999977, 100%, 77.7%)" stroke-width="1.5"></path><path d="M476.26 390.66L476.26 390.66" stroke="hsl(18.399999999999977, 100%, 77.7%)" stroke-width="1.5"></path><path d="M476.26 390.66L479 303.94" stroke="hsl(18.399999999999977, 100%, 77.7%)" stroke-width="1.5"></path><path d="M476.26 390.66L383.47 394.66" stroke="hsl(18.399999999999977, 100%, 77.7%)" stroke-width="1.5"></path><path d="M476.26 390.66L570.61 395.16" stroke="hsl(18.399999999999977, 100%, 77.7%)" stroke-width="1.5"></path><path d="M476.26 390.66L503.36 510.28" stroke="hsl(18.399999999999977, 100%, 77.7%)" stroke-width="1.5"></path><path d="M476.26 390.66L393.29 501.72" stroke="hsl(18.399999999999977, 100%, 77.7%)" stroke-width="1.5"></path><path d="M476.26 390.66L336.48 384.33" stroke="hsl(18.399999999999977, 100%, 77.7%)" stroke-width="1.5"></path><path d="M503.36 510.28L503.36 510.28" stroke="hsl(18.399999999999977, 100%, 77.7%)" stroke-width="1.5"></path><path d="M503.36 510.28L564.95 501.75" stroke="hsl(18.399999999999977, 100%, 77.7%)" stroke-width="1.5"></path><path d="M503.36 510.28L512.64 605.55" stroke="hsl(18.399999999999977, 100%, 77.7%)" stroke-width="1.5"></path><path d="M503.36 510.28L424.67 575.62" stroke="hsl(18.399999999999977, 100%, 77.7%)" stroke-width="1.5"></path><path d="M503.36 510.28L393.29 501.72" stroke="hsl(18.399999999999977, 100%, 77.7%)" stroke-width="1.5"></path><path d="M503.36 510.28L581.25 591.11" stroke="hsl(18.399999999999977, 100%, 77.7%)" stroke-width="1.5"></path><path d="M597.75 28.38L597.75 28.38" stroke="hsl(18.399999999999977, 100%, 77.7%)" stroke-width="1.5"></path><path d="M597.75 28.38L588 -65.12" stroke="hsl(18.399999999999977, 100%, 77.7%)" stroke-width="1.5"></path><path d="M597.75 28.38L695.81 66.26" stroke="hsl(18.399999999999977, 100%, 77.7%)" stroke-width="1.5"></path><path d="M597.75 28.38L689.24 -54.41" stroke="hsl(18.399999999999977, 100%, 77.7%)" stroke-width="1.5"></path><path d="M597.75 28.38L584.86 157.44" stroke="hsl(18.399999999999977, 100%, 77.7%)" stroke-width="1.5"></path><path d="M564.95 501.75L564.95 501.75" stroke="hsl(18.399999999999977, 100%, 77.7%)" stroke-width="1.5"></path><path d="M564.95 501.75L581.25 591.11" stroke="hsl(18.399999999999977, 100%, 77.7%)" stroke-width="1.5"></path><path d="M564.95 501.75L570.61 395.16" stroke="hsl(18.399999999999977, 100%, 77.7%)" stroke-width="1.5"></path><path d="M564.95 501.75L512.64 605.55" stroke="hsl(18.399999999999977, 100%, 77.7%)" stroke-width="1.5"></path><path d="M564.95 501.75L674.44 580.57" stroke="hsl(18.399999999999977, 100%, 77.7%)" stroke-width="1.5"></path><path d="M564.95 501.75L476.26 390.66" stroke="hsl(18.399999999999977, 100%, 77.7%)" stroke-width="1.5"></path><path d="M574.22 654.39L574.22 654.39" stroke="hsl(18.399999999999977, 100%, 77.7%)" stroke-width="1.5"></path><path d="M574.22 654.39L581.25 591.11" stroke="hsl(18.399999999999977, 100%, 77.7%)" stroke-width="1.5"></path><path d="M574.22 654.39L497.66 652.65" stroke="hsl(18.399999999999977, 100%, 77.7%)" stroke-width="1.5"></path><path d="M574.22 654.39L512.64 605.55" stroke="hsl(18.399999999999977, 100%, 77.7%)" stroke-width="1.5"></path><path d="M695.81 66.26L695.81 66.26" stroke="hsl(18.399999999999977, 100%, 77.7%)" stroke-width="1.5"></path><path d="M695.81 66.26L750.3 31.72" stroke="hsl(18.399999999999977, 100%, 77.7%)" stroke-width="1.5"></path><path d="M695.81 66.26L674.07 150.37" stroke="hsl(18.399999999999977, 100%, 77.7%)" stroke-width="1.5"></path><path d="M674.44 580.57L674.44 580.57" stroke="hsl(18.399999999999977, 100%, 77.7%)" stroke-width="1.5"></path><path d="M674.44 580.57L749.53 570.44" stroke="hsl(18.399999999999977, 100%, 77.7%)" stroke-width="1.5"></path><path d="M674.44 580.57L669.97 669.81" stroke="hsl(18.399999999999977, 100%, 77.7%)" stroke-width="1.5"></path><path d="M763.43 232.69L763.43 232.69" stroke="hsl(18.399999999999977, 100%, 77.7%)" stroke-width="1.5"></path><path d="M763.43 232.69L755.35 303.65" stroke="hsl(18.399999999999977, 100%, 77.7%)" stroke-width="1.5"></path><path d="M763.43 232.69L691.37 211.18" stroke="hsl(18.399999999999977, 100%, 77.7%)" stroke-width="1.5"></path><path d="M763.43 232.69L751.91 150.53" stroke="hsl(18.399999999999977, 100%, 77.7%)" stroke-width="1.5"></path><path d="M763.43 232.69L695.55 316.16" stroke="hsl(18.399999999999977, 100%, 77.7%)" stroke-width="1.5"></path><path d="M763.43 232.69L674.07 150.37" stroke="hsl(18.399999999999977, 100%, 77.7%)" stroke-width="1.5"></path><path d="M-24.84 480.97L-24.84 480.97" stroke="hsl(18.399999999999977, 100%, 77.7%)" stroke-width="1.5"></path><path d="M-24.84 480.97L55.57 476.97" stroke="hsl(18.399999999999977, 100%, 77.7%)" stroke-width="1.5"></path><path d="M-24.84 480.97L-29.33 563.56" stroke="hsl(18.399999999999977, 100%, 77.7%)" stroke-width="1.5"></path><path d="M-29.33 563.56L-29.33 563.56" stroke="hsl(18.399999999999977, 100%, 77.7%)" stroke-width="1.5"></path><path d="M-29.33 563.56L47.24 575.05" stroke="hsl(18.399999999999977, 100%, 77.7%)" stroke-width="1.5"></path><path d="M-29.33 563.56L-50.91 677.87" stroke="hsl(18.399999999999977, 100%, 77.7%)" stroke-width="1.5"></path><path d="M-29.33 563.56L55.57 476.97" stroke="hsl(18.399999999999977, 100%, 77.7%)" stroke-width="1.5"></path><path d="M-29.33 563.56L23.61 679.59" stroke="hsl(18.399999999999977, 100%, 77.7%)" stroke-width="1.5"></path><path d="M-50.91 677.87L-50.91 677.87" stroke="hsl(18.399999999999977, 100%, 77.7%)" stroke-width="1.5"></path><path d="M-50.91 677.87L23.61 679.59" stroke="hsl(18.399999999999977, 100%, 77.7%)" stroke-width="1.5"></path><path d="M-50.91 677.87L47.24 575.05" stroke="hsl(18.399999999999977, 100%, 77.7%)" stroke-width="1.5"></path><path d="M-50.91 677.87L118.12 672.22" stroke="hsl(18.399999999999977, 100%, 77.7%)" stroke-width="1.5"></path><path d="M55.57 476.97L55.57 476.97" stroke="hsl(18.399999999999977, 100%, 77.7%)" stroke-width="1.5"></path><path d="M55.57 476.97L131.1 488.52" stroke="hsl(18.399999999999977, 100%, 77.7%)" stroke-width="1.5"></path><path d="M55.57 476.97L47.24 575.05" stroke="hsl(18.399999999999977, 100%, 77.7%)" stroke-width="1.5"></path><path d="M47.24 575.05L47.24 575.05" stroke="hsl(18.399999999999977, 100%, 77.7%)" stroke-width="1.5"></path><path d="M47.24 575.05L142.46 562.75" stroke="hsl(18.399999999999977, 100%, 77.7%)" stroke-width="1.5"></path><path d="M47.24 575.05L23.61 679.59" stroke="hsl(18.399999999999977, 100%, 77.7%)" stroke-width="1.5"></path><path d="M47.24 575.05L-24.84 480.97" stroke="hsl(18.399999999999977, 100%, 77.7%)" stroke-width="1.5"></path><path d="M47.24 575.05L118.12 672.22" stroke="hsl(18.399999999999977, 100%, 77.7%)" stroke-width="1.5"></path><path d="M23.61 679.59L23.61 679.59" stroke="hsl(18.399999999999977, 100%, 77.7%)" stroke-width="1.5"></path><path d="M23.61 679.59L118.12 672.22" stroke="hsl(18.399999999999977, 100%, 77.7%)" stroke-width="1.5"></path><path d="M23.61 679.59L142.46 562.75" stroke="hsl(18.399999999999977, 100%, 77.7%)" stroke-width="1.5"></path><path d="M131.1 488.52L131.1 488.52" stroke="hsl(18.399999999999977, 100%, 77.7%)" stroke-width="1.5"></path><path d="M131.1 488.52L142.46 562.75" stroke="hsl(18.399999999999977, 100%, 77.7%)" stroke-width="1.5"></path><path d="M142.46 562.75L142.46 562.75" stroke="hsl(18.399999999999977, 100%, 77.7%)" stroke-width="1.5"></path><path d="M118.12 672.22L118.12 672.22" stroke="hsl(18.399999999999977, 100%, 77.7%)" stroke-width="1.5"></path><path d="M336.48 384.33L336.48 384.33" stroke="hsl(18.399999999999977, 100%, 77.7%)" stroke-width="1.5"></path><path d="M336.48 384.33L383.47 394.66" stroke="hsl(18.399999999999977, 100%, 77.7%)" stroke-width="1.5"></path><path d="M336.48 384.33L307.51 474.42" stroke="hsl(18.399999999999977, 100%, 77.7%)" stroke-width="1.5"></path><path d="M336.48 384.33L393.29 501.72" stroke="hsl(18.399999999999977, 100%, 77.7%)" stroke-width="1.5"></path><path d="M307.51 474.42L307.51 474.42" stroke="hsl(18.399999999999977, 100%, 77.7%)" stroke-width="1.5"></path><path d="M307.51 474.42L393.29 501.72" stroke="hsl(18.399999999999977, 100%, 77.7%)" stroke-width="1.5"></path><path d="M303.55 579.08L303.55 579.08" stroke="hsl(18.399999999999977, 100%, 77.7%)" stroke-width="1.5"></path><path d="M303.55 579.08L307.51 474.42" stroke="hsl(18.399999999999977, 100%, 77.7%)" stroke-width="1.5"></path><path d="M296.4 690.13L296.4 690.13" stroke="hsl(18.399999999999977, 100%, 77.7%)" stroke-width="1.5"></path><path d="M296.4 690.13L395.53 667.3" stroke="hsl(18.399999999999977, 100%, 77.7%)" stroke-width="1.5"></path><path d="M296.4 690.13L303.55 579.08" stroke="hsl(18.399999999999977, 100%, 77.7%)" stroke-width="1.5"></path><path d="M383.47 394.66L383.47 394.66" stroke="hsl(18.399999999999977, 100%, 77.7%)" stroke-width="1.5"></path><path d="M424.67 575.62L424.67 575.62" stroke="hsl(18.399999999999977, 100%, 77.7%)" stroke-width="1.5"></path><path d="M424.67 575.62L512.64 605.55" stroke="hsl(18.399999999999977, 100%, 77.7%)" stroke-width="1.5"></path><path d="M424.67 575.62L395.53 667.3" stroke="hsl(18.399999999999977, 100%, 77.7%)" stroke-width="1.5"></path><path d="M395.53 667.3L395.53 667.3" stroke="hsl(18.399999999999977, 100%, 77.7%)" stroke-width="1.5"></path><path d="M395.53 667.3L497.66 652.65" stroke="hsl(18.399999999999977, 100%, 77.7%)" stroke-width="1.5"></path><path d="M504.85 220.5L504.85 220.5" stroke="hsl(18.399999999999977, 100%, 77.7%)" stroke-width="1.5"></path><path d="M504.85 220.5L479 303.94" stroke="hsl(18.399999999999977, 100%, 77.7%)" stroke-width="1.5"></path><path d="M504.85 220.5L593.18 209.45" stroke="hsl(18.399999999999977, 100%, 77.7%)" stroke-width="1.5"></path><path d="M504.85 220.5L584.86 157.44" stroke="hsl(18.399999999999977, 100%, 77.7%)" stroke-width="1.5"></path><path d="M504.85 220.5L597.18 301.4" stroke="hsl(18.399999999999977, 100%, 77.7%)" stroke-width="1.5"></path><path d="M504.85 220.5L476.26 390.66" stroke="hsl(18.399999999999977, 100%, 77.7%)" stroke-width="1.5"></path><path d="M479 303.94L479 303.94" stroke="hsl(18.399999999999977, 100%, 77.7%)" stroke-width="1.5"></path><path d="M479 303.94L597.18 301.4" stroke="hsl(18.399999999999977, 100%, 77.7%)" stroke-width="1.5"></path><path d="M479 303.94L570.61 395.16" stroke="hsl(18.399999999999977, 100%, 77.7%)" stroke-width="1.5"></path><path d="M479 303.94L383.47 394.66" stroke="hsl(18.399999999999977, 100%, 77.7%)" stroke-width="1.5"></path><path d="M479 303.94L593.18 209.45" stroke="hsl(18.399999999999977, 100%, 77.7%)" stroke-width="1.5"></path><path d="M512.64 605.55L512.64 605.55" stroke="hsl(18.399999999999977, 100%, 77.7%)" stroke-width="1.5"></path><path d="M512.64 605.55L497.66 652.65" stroke="hsl(18.399999999999977, 100%, 77.7%)" stroke-width="1.5"></path><path d="M512.64 605.55L581.25 591.11" stroke="hsl(18.399999999999977, 100%, 77.7%)" stroke-width="1.5"></path><path d="M497.66 652.65L497.66 652.65" stroke="hsl(18.399999999999977, 100%, 77.7%)" stroke-width="1.5"></path><path d="M497.66 652.65L581.25 591.11" stroke="hsl(18.399999999999977, 100%, 77.7%)" stroke-width="1.5"></path><path d="M497.66 652.65L424.67 575.62" stroke="hsl(18.399999999999977, 100%, 77.7%)" stroke-width="1.5"></path><path d="M588 -65.12L588 -65.12" stroke="hsl(18.399999999999977, 100%, 77.7%)" stroke-width="1.5"></path><path d="M588 -65.12L689.24 -54.41" stroke="hsl(18.399999999999977, 100%, 77.7%)" stroke-width="1.5"></path><path d="M588 -65.12L695.81 66.26" stroke="hsl(18.399999999999977, 100%, 77.7%)" stroke-width="1.5"></path><path d="M588 -65.12L758.99 -49.66" stroke="hsl(18.399999999999977, 100%, 77.7%)" stroke-width="1.5"></path><path d="M584.86 157.44L584.86 157.44" stroke="hsl(18.399999999999977, 100%, 77.7%)" stroke-width="1.5"></path><path d="M584.86 157.44L593.18 209.45" stroke="hsl(18.399999999999977, 100%, 77.7%)" stroke-width="1.5"></path><path d="M584.86 157.44L674.07 150.37" stroke="hsl(18.399999999999977, 100%, 77.7%)" stroke-width="1.5"></path><path d="M584.86 157.44L691.37 211.18" stroke="hsl(18.399999999999977, 100%, 77.7%)" stroke-width="1.5"></path><path d="M584.86 157.44L695.81 66.26" stroke="hsl(18.399999999999977, 100%, 77.7%)" stroke-width="1.5"></path><path d="M593.18 209.45L593.18 209.45" stroke="hsl(18.399999999999977, 100%, 77.7%)" stroke-width="1.5"></path><path d="M593.18 209.45L597.18 301.4" stroke="hsl(18.399999999999977, 100%, 77.7%)" stroke-width="1.5"></path><path d="M597.18 301.4L597.18 301.4" stroke="hsl(18.399999999999977, 100%, 77.7%)" stroke-width="1.5"></path><path d="M597.18 301.4L570.61 395.16" stroke="hsl(18.399999999999977, 100%, 77.7%)" stroke-width="1.5"></path><path d="M597.18 301.4L695.55 316.16" stroke="hsl(18.399999999999977, 100%, 77.7%)" stroke-width="1.5"></path><path d="M597.18 301.4L691.37 211.18" stroke="hsl(18.399999999999977, 100%, 77.7%)" stroke-width="1.5"></path><path d="M570.61 395.16L570.61 395.16" stroke="hsl(18.399999999999977, 100%, 77.7%)" stroke-width="1.5"></path><path d="M570.61 395.16L681.16 411.62" stroke="hsl(18.399999999999977, 100%, 77.7%)" stroke-width="1.5"></path><path d="M581.25 591.11L581.25 591.11" stroke="hsl(18.399999999999977, 100%, 77.7%)" stroke-width="1.5"></path><path d="M581.25 591.11L674.44 580.57" stroke="hsl(18.399999999999977, 100%, 77.7%)" stroke-width="1.5"></path><path d="M689.24 -54.41L689.24 -54.41" stroke="hsl(18.399999999999977, 100%, 77.7%)" stroke-width="1.5"></path><path d="M689.24 -54.41L758.99 -49.66" stroke="hsl(18.399999999999977, 100%, 77.7%)" stroke-width="1.5"></path><path d="M689.24 -54.41L750.3 31.72" stroke="hsl(18.399999999999977, 100%, 77.7%)" stroke-width="1.5"></path><path d="M674.07 150.37L674.07 150.37" stroke="hsl(18.399999999999977, 100%, 77.7%)" stroke-width="1.5"></path><path d="M674.07 150.37L691.37 211.18" stroke="hsl(18.399999999999977, 100%, 77.7%)" stroke-width="1.5"></path><path d="M674.07 150.37L751.91 150.53" stroke="hsl(18.399999999999977, 100%, 77.7%)" stroke-width="1.5"></path><path d="M674.07 150.37L593.18 209.45" stroke="hsl(18.399999999999977, 100%, 77.7%)" stroke-width="1.5"></path><path d="M691.37 211.18L691.37 211.18" stroke="hsl(18.399999999999977, 100%, 77.7%)" stroke-width="1.5"></path><path d="M691.37 211.18L751.91 150.53" stroke="hsl(18.399999999999977, 100%, 77.7%)" stroke-width="1.5"></path><path d="M695.55 316.16L695.55 316.16" stroke="hsl(18.399999999999977, 100%, 77.7%)" stroke-width="1.5"></path><path d="M695.55 316.16L755.35 303.65" stroke="hsl(18.399999999999977, 100%, 77.7%)" stroke-width="1.5"></path><path d="M695.55 316.16L746.9 392.94" stroke="hsl(18.399999999999977, 100%, 77.7%)" stroke-width="1.5"></path><path d="M681.16 411.62L681.16 411.62" stroke="hsl(18.399999999999977, 100%, 77.7%)" stroke-width="1.5"></path><path d="M681.16 411.62L746.9 392.94" stroke="hsl(18.399999999999977, 100%, 77.7%)" stroke-width="1.5"></path><path d="M681.16 411.62L695.55 316.16" stroke="hsl(18.399999999999977, 100%, 77.7%)" stroke-width="1.5"></path><path d="M681.16 411.62L770.97 486.07" stroke="hsl(18.399999999999977, 100%, 77.7%)" stroke-width="1.5"></path><path d="M669.97 669.81L669.97 669.81" stroke="hsl(18.399999999999977, 100%, 77.7%)" stroke-width="1.5"></path><path d="M669.97 669.81L574.22 654.39" stroke="hsl(18.399999999999977, 100%, 77.7%)" stroke-width="1.5"></path><path d="M758.99 -49.66L758.99 -49.66" stroke="hsl(18.399999999999977, 100%, 77.7%)" stroke-width="1.5"></path><path d="M758.99 -49.66L750.3 31.72" stroke="hsl(18.399999999999977, 100%, 77.7%)" stroke-width="1.5"></path><path d="M750.3 31.72L750.3 31.72" stroke="hsl(18.399999999999977, 100%, 77.7%)" stroke-width="1.5"></path><path d="M751.91 150.53L751.91 150.53" stroke="hsl(18.399999999999977, 100%, 77.7%)" stroke-width="1.5"></path><path d="M751.91 150.53L695.81 66.26" stroke="hsl(18.399999999999977, 100%, 77.7%)" stroke-width="1.5"></path><path d="M751.91 150.53L750.3 31.72" stroke="hsl(18.399999999999977, 100%, 77.7%)" stroke-width="1.5"></path><path d="M755.35 303.65L755.35 303.65" stroke="hsl(18.399999999999977, 100%, 77.7%)" stroke-width="1.5"></path><path d="M755.35 303.65L746.9 392.94" stroke="hsl(18.399999999999977, 100%, 77.7%)" stroke-width="1.5"></path><path d="M755.35 303.65L691.37 211.18" stroke="hsl(18.399999999999977, 100%, 77.7%)" stroke-width="1.5"></path><path d="M755.35 303.65L681.16 411.62" stroke="hsl(18.399999999999977, 100%, 77.7%)" stroke-width="1.5"></path><path d="M755.35 303.65L751.91 150.53" stroke="hsl(18.399999999999977, 100%, 77.7%)" stroke-width="1.5"></path><path d="M746.9 392.94L746.9 392.94" stroke="hsl(18.399999999999977, 100%, 77.7%)" stroke-width="1.5"></path><path d="M770.97 486.07L770.97 486.07" stroke="hsl(18.399999999999977, 100%, 77.7%)" stroke-width="1.5"></path><path d="M770.97 486.07L749.53 570.44" stroke="hsl(18.399999999999977, 100%, 77.7%)" stroke-width="1.5"></path><path d="M770.97 486.07L746.9 392.94" stroke="hsl(18.399999999999977, 100%, 77.7%)" stroke-width="1.5"></path><path d="M749.53 570.44L749.53 570.44" stroke="hsl(18.399999999999977, 100%, 77.7%)" stroke-width="1.5"></path><path d="M749.53 570.44L785.86 662.38" stroke="hsl(18.399999999999977, 100%, 77.7%)" stroke-width="1.5"></path><path d="M749.53 570.44L669.97 669.81" stroke="hsl(18.399999999999977, 100%, 77.7%)" stroke-width="1.5"></path><path d="M749.53 570.44L581.25 591.11" stroke="hsl(18.399999999999977, 100%, 77.7%)" stroke-width="1.5"></path><path d="M785.86 662.38L785.86 662.38" stroke="hsl(18.399999999999977, 100%, 77.7%)" stroke-width="1.5"></path><path d="M785.86 662.38L669.97 669.81" stroke="hsl(18.399999999999977, 100%, 77.7%)" stroke-width="1.5"></path><path d="M785.86 662.38L674.44 580.57" stroke="hsl(18.399999999999977, 100%, 77.7%)" stroke-width="1.5"></path><path d="M785.86 662.38L770.97 486.07" stroke="hsl(18.399999999999977, 100%, 77.7%)" stroke-width="1.5"></path><path d="M785.86 662.38L574.22 654.39" stroke="hsl(18.399999999999977, 100%, 77.7%)" stroke-width="1.5"></path><path d="M785.86 662.38L581.25 591.11" stroke="hsl(18.399999999999977, 100%, 77.7%)" stroke-width="1.5"></path><circle r="25" cx="220.04" cy="480.42" fill="url(#SvgjsRadialGradient1031)"></circle><circle r="25" cx="227.8" cy="580.99" fill="url(#SvgjsRadialGradient1031)"></circle><circle r="25" cx="393.29" cy="501.72" fill="url(#SvgjsRadialGradient1031)"></circle><circle r="25" cx="476.26" cy="390.66" fill="url(#SvgjsRadialGradient1031)"></circle><circle r="25" cx="503.36" cy="510.28" fill="url(#SvgjsRadialGradient1031)"></circle><circle r="25" cx="597.75" cy="28.38" fill="url(#SvgjsRadialGradient1031)"></circle><circle r="25" cx="564.95" cy="501.75" fill="url(#SvgjsRadialGradient1031)"></circle><circle r="25" cx="574.22" cy="654.39" fill="url(#SvgjsRadialGradient1031)"></circle><circle r="25" cx="695.81" cy="66.26" fill="url(#SvgjsRadialGradient1031)"></circle><circle r="25" cx="674.44" cy="580.57" fill="url(#SvgjsRadialGradient1031)"></circle><circle r="25" cx="763.43" cy="232.69" fill="url(#SvgjsRadialGradient1031)"></circle><circle r="5" cx="-24.84" cy="480.97" fill="#ffb899"></circle><circle r="5" cx="-29.33" cy="563.56" fill="#ffb899"></circle><circle r="5" cx="-50.91" cy="677.87" fill="#ffb899"></circle><circle r="5" cx="55.57" cy="476.97" fill="#ffb899"></circle><circle r="5" cx="47.24" cy="575.05" fill="#ffb899"></circle><circle r="5" cx="23.61" cy="679.59" fill="#ffb899"></circle><circle r="5" cx="131.1" cy="488.52" fill="#ffb899"></circle><circle r="5" cx="142.46" cy="562.75" fill="#ffb899"></circle><circle r="5" cx="118.12" cy="672.22" fill="#ffb899"></circle><circle r="5" cx="336.48" cy="384.33" fill="#ffb899"></circle><circle r="5" cx="307.51" cy="474.42" fill="#ffb899"></circle><circle r="5" cx="303.55" cy="579.08" fill="#ffb899"></circle><circle r="5" cx="296.4" cy="690.13" fill="#ffb899"></circle><circle r="5" cx="383.47" cy="394.66" fill="#ffb899"></circle><circle r="5" cx="424.67" cy="575.62" fill="#ffb899"></circle><circle r="5" cx="395.53" cy="667.3" fill="#ffb899"></circle><circle r="5" cx="504.85" cy="220.5" fill="#ffb899"></circle><circle r="5" cx="479" cy="303.94" fill="#ffb899"></circle><circle r="5" cx="512.64" cy="605.55" fill="#ffb899"></circle><circle r="5" cx="497.66" cy="652.65" fill="#ffb899"></circle><circle r="5" cx="588" cy="-65.12" fill="#ffb899"></circle><circle r="5" cx="584.86" cy="157.44" fill="#ffb899"></circle><circle r="5" cx="593.18" cy="209.45" fill="#ffb899"></circle><circle r="5" cx="597.18" cy="301.4" fill="#ffb899"></circle><circle r="5" cx="570.61" cy="395.16" fill="#ffb899"></circle><circle r="5" cx="581.25" cy="591.11" fill="#ffb899"></circle><circle r="5" cx="689.24" cy="-54.41" fill="#ffb899"></circle><circle r="5" cx="674.07" cy="150.37" fill="#ffb899"></circle><circle r="5" cx="691.37" cy="211.18" fill="#ffb899"></circle><circle r="5" cx="695.55" cy="316.16" fill="#ffb899"></circle><circle r="5" cx="681.16" cy="411.62" fill="#ffb899"></circle><circle r="5" cx="669.97" cy="669.81" fill="#ffb899"></circle><circle r="5" cx="758.99" cy="-49.66" fill="#ffb899"></circle><circle r="5" cx="750.3" cy="31.72" fill="#ffb899"></circle><circle r="5" cx="751.91" cy="150.53" fill="#ffb899"></circle><circle r="5" cx="755.35" cy="303.65" fill="#ffb899"></circle><circle r="5" cx="746.9" cy="392.94" fill="#ffb899"></circle><circle r="5" cx="770.97" cy="486.07" fill="#ffb899"></circle><circle r="5" cx="749.53" cy="570.44" fill="#ffb899"></circle><circle r="5" cx="785.86" cy="662.38" fill="#ffb899"></circle></g><defs><mask id="SvgjsMask1030"><rect width="720" height="560" fill="#ffffff"></rect></mask><radialGradient id="SvgjsRadialGradient1031"><stop stop-color="#ffffff" offset="0.1"></stop><stop stop-color="rgba(255, 113, 50, 1)" offset="0.2"></stop><stop stop-color="rgba(255, 113, 50, 0)" offset="1"></stop></radialGradient></defs></svg>